<svg width="157" height="157" viewBox="0 0 157 157" fill="none" xmlns="http://www.w3.org/2000/svg">
<path d="M54.3873 16.7701C30.145 26.3737 13 50.0292 13 77.6891C13 94.0635 19.0085 109.035 28.941 120.518L54.3873 16.7701Z" fill="#A97171"/>
<path d="M57.9 139.884C64.3776 142.028 71.3032 143.189 78.5 143.189C87.4744 143.189 96.0273 141.384 103.815 138.118C103.154 137.246 102.624 136.253 102.261 135.156L91.0212 101.156C89.7293 97.2478 86.2123 94.5015 82.1077 94.1956L77.9353 93.8845C72.9739 93.5148 68.4713 96.7834 67.2861 101.615L57.9 139.884Z" fill="#7D5353"/>
<path d="M130.788 117.144L115.246 70.1322C113.955 66.2241 110.438 63.4778 106.333 63.1719L89.2489 61.8984C82.9684 61.4303 78.6136 55.4316 80.1139 49.3151L88.5541 14.9032C88.7101 14.2672 88.8026 13.6307 88.8357 13C120.099 17.9558 144 45.0312 144 77.6891C144 92.5044 139.081 106.171 130.788 117.144Z" fill="#A97171"/>
</svg>
